<svg width="200" height="37" viewBox="0 0 200 37" fill="none" xmlns="http://www.w3.org/2000/svg">
    <g clip-path="url(#clip0_1_21)">
        <path d="M40.3653 10.3297C33.0997 10.3297 27.4228 16.0417 27.4228 23.6883C27.4228 31.335 32.9563 36.9981 40.3653 36.9981C47.7742 36.9981 53.404 31.2373 53.404 23.6395C53.404 16.0906 47.8704 10.3297 40.3653 10.3297ZM40.4143 31.4873C36.2768 31.4873 33.245 28.1594 33.245 23.6902C33.245 19.1703 36.2278 15.8443 40.3653 15.8443C44.5518 15.8443 47.5818 19.221 47.5818 23.6902C47.5818 28.1594 44.5518 31.4873 40.4143 31.4873ZM54.9907 16.1413H58.5999V36.5036H64.3731V10.8261H54.9907V16.1413ZM12.8935 15.8424C15.9253 15.8424 18.3309 17.779 19.244 20.6594H25.3549C24.2475 14.5018 19.3403 10.3297 12.9425 10.3297C5.67699 10.3297 0 16.0417 0 23.6902C0 31.3388 5.53357 37 12.9425 37C19.1968 37 24.2003 32.8279 25.3077 26.6195H19.244C18.3781 29.5 15.9725 31.4873 12.9407 31.4873C8.75422 31.4873 5.82041 28.1594 5.82041 23.6902C5.82223 19.1703 8.70883 15.8424 12.8935 15.8424ZM164.685 21.2065L160.452 20.5616C158.431 20.2645 156.988 19.5689 156.988 17.9294C156.988 16.1413 158.865 15.2482 161.414 15.2482C164.204 15.2482 165.985 16.4892 166.37 18.5254H171.951C171.325 13.3605 167.476 10.3316 161.559 10.3316C155.448 10.3316 151.407 13.5598 151.407 18.1287C151.407 22.4982 154.054 25.0327 159.393 25.8261L163.627 26.471C165.697 26.7681 166.851 27.6142 166.851 29.2029C166.851 31.2391 164.831 32.0833 162.04 32.0833C158.624 32.0833 156.699 30.6431 156.41 28.4584H150.733C151.264 33.4747 155.063 37 161.991 37C168.295 37 172.479 34.0199 172.479 28.904C172.479 24.3351 169.449 21.9511 164.685 21.2065ZM61.4865 0.248183C59.3697 0.248183 57.7811 1.83693 57.7811 4.0217C57.7811 6.20646 59.3678 7.79521 61.4865 7.79521C63.6034 7.79521 65.1919 6.20646 65.1919 4.0217C65.1919 1.83693 63.6034 0.248183 61.4865 0.248183ZM146.211 19.6178C146.211 14.0562 142.94 10.3316 136.012 10.3316C129.469 10.3316 125.812 13.7591 125.09 19.0236H130.816C131.105 16.9874 132.644 15.299 135.916 15.299C138.851 15.299 140.294 16.6396 140.294 18.2791C140.294 20.415 137.648 20.9602 134.376 21.308C129.95 21.8044 124.465 23.3932 124.465 29.3533C124.465 33.9729 127.786 36.9511 133.078 36.9511C137.215 36.9511 139.813 35.1631 141.113 32.3315C141.306 34.8641 143.134 36.5036 145.685 36.5036H149.052V31.1903H146.213V19.6178H146.211ZM140.534 26.0743C140.534 29.5019 137.648 32.0345 134.135 32.0345C131.969 32.0345 130.141 31.0906 130.141 29.1051C130.141 26.5725 133.076 25.8769 135.77 25.5798C138.368 25.3316 139.812 24.7356 140.534 23.5925V26.0743ZM109.887 10.3297C106.663 10.3297 103.969 11.721 102.044 14.0543V0H96.271V36.5036H101.948V33.1268C103.872 35.5598 106.616 37 109.887 37C116.815 37 122.06 31.3388 122.06 23.6902C122.06 16.0417 116.719 10.3297 109.887 10.3297ZM109.021 31.4873C104.884 31.4873 101.852 28.1594 101.852 23.6902C101.852 19.221 104.931 15.8443 109.068 15.8443C113.255 15.8443 116.189 19.1722 116.189 23.6902C116.189 28.1594 113.159 31.4873 109.021 31.4873ZM82.4625 10.3297C78.7099 10.3297 76.2554 11.9184 74.8121 14.154V10.8261H69.0861V36.5018H74.8593V22.5471C74.8593 18.6232 77.2648 15.8424 80.825 15.8424C84.1455 15.8424 86.2133 18.2753 86.2133 21.8025V36.5036H91.9865V21.3569C91.9883 14.8985 88.7658 10.3297 82.4625 10.3297ZM200 22.846C200 15.4964 194.804 10.3316 187.827 10.3316C180.418 10.3316 174.981 16.0924 174.981 23.6902C174.981 31.6866 180.803 37 187.923 37C193.938 37 198.653 33.3243 199.855 28.1105H193.84C192.974 30.3949 190.857 31.6866 188.018 31.6866C184.312 31.6866 181.522 29.3026 180.898 25.1304H199.998V22.846H200ZM181.235 20.8587C182.15 17.2826 184.748 15.5453 187.731 15.5453C191.003 15.5453 193.504 17.4819 194.082 20.8587H181.235Z" fill="#0052FF"/>
    </g>
    <defs>
        <clipPath id="clip0_1_21">
        <rect width="200" height="37" fill="white"/>
        </clipPath>
    </defs>
</svg>
