<svg width="190" height="39" viewBox="0 0 190 39" fill="none" xmlns="http://www.w3.org/2000/svg">
<path d="M4.5 34.5H13.9C16.0333 34.5 17.5167 34.2167 18.35 33.65C19.2167 33.0833 19.65 32.0667 19.65 30.6V8.4C19.65 6.93333 19.2167 5.91666 18.35 5.35C17.5167 4.78333 16.0333 4.5 13.9 4.5H4.5V34.5ZM0.5 34.25V4.75C0.5 3.28333 0.666667 2.3 1 1.8C1.36667 1.26667 2.2 1 3.5 1H13.9C17.2333 1 19.6833 1.6 21.25 2.8C22.85 4 23.65 6.03333 23.65 8.9V30.1C23.65 32.9667 22.85 35 21.25 36.2C19.6833 37.4 17.2333 38 13.9 38H3.5C2.2 38 1.36667 37.75 1 37.25C0.666667 36.7167 0.5 35.7167 0.5 34.25ZM36.1309 25.1V31.35C36.1309 33.95 38.4809 35.25 43.1809 35.25C47.9142 35.25 50.2809 33.95 50.2809 31.35V27.75C50.2809 26.9833 50.9475 26.6 52.2809 26.6C53.6142 26.6 54.2809 26.9833 54.2809 27.75V30.85C54.2809 33.6167 53.2809 35.6333 51.2809 36.9C49.2809 38.1333 46.5975 38.75 43.2309 38.75C39.8975 38.75 37.2142 38.1333 35.1809 36.9C33.1475 35.6333 32.1309 33.6167 32.1309 30.85V25.1C32.1309 21.6667 33.5975 19.6 36.5309 18.9C33.9309 18.1 32.6309 16.0667 32.6309 12.8V8.15C32.6309 5.38333 33.6475 3.38333 35.6809 2.15C37.7142 0.883331 40.2975 0.249997 43.4309 0.249997C46.5975 0.249997 49.0975 0.883331 50.9309 2.15C52.7642 3.41667 53.6809 5.41667 53.6809 8.15V8.9C53.6809 9.66667 53.0142 10.05 51.6809 10.05C50.3475 10.05 49.6809 9.66667 49.6809 8.9V7.65C49.6809 5.05 47.4975 3.75 43.1309 3.75C38.7975 3.75 36.6309 5.05 36.6309 7.65V12.8C36.6309 15.7333 38.4309 17.2 42.0309 17.2H45.7809C46.4475 17.2 46.7809 17.7833 46.7809 18.95C46.7809 20.1167 46.4475 20.7 45.7809 20.7H41.5309C37.9309 20.7 36.1309 22.1667 36.1309 25.1ZM76.2578 20.7H64.7578V37.1C64.7578 37.8667 64.0911 38.25 62.7578 38.25C61.4245 38.25 60.7578 37.8667 60.7578 37.1V9.8C60.7578 6.7 61.3578 4.46667 62.5578 3.1C63.7578 1.7 65.7911 1 68.6578 1H78.2578C78.9245 1 79.2578 1.58333 79.2578 2.75C79.2578 3.91667 78.9245 4.5 78.2578 4.5H68.6578C67.2245 4.5 66.2078 4.9 65.6078 5.7C65.0411 6.5 64.7578 7.86667 64.7578 9.8V17.2H76.2578C76.9245 17.2 77.2578 17.7833 77.2578 18.95C77.2578 20.1167 76.9245 20.7 76.2578 20.7ZM87.7695 1.9V37.1C87.7695 37.8667 87.1029 38.25 85.7695 38.25C84.4362 38.25 83.7695 37.8667 83.7695 37.1V1.9C83.7695 1.13333 84.4362 0.749997 85.7695 0.749997C87.1029 0.749997 87.7695 1.13333 87.7695 1.9ZM101.785 4.5H101.285V37.1C101.285 37.8667 100.618 38.25 99.2852 38.25C97.9518 38.25 97.2852 37.8667 97.2852 37.1V4.75C97.2852 3.28333 97.4518 2.3 97.7852 1.8C98.1518 1.26667 98.9852 1 100.285 1H101.385C103.718 1 105.285 1.26667 106.085 1.8C106.885 2.33333 107.552 3.66667 108.085 5.8L114.585 32.05C114.885 33.25 115.168 34 115.435 34.3C115.702 34.6 116.368 34.75 117.435 34.75H117.935V2.15C117.935 1.38333 118.602 1 119.935 1C121.268 1 121.935 1.38333 121.935 2.15V34.5C121.935 35.9667 121.752 36.9667 121.385 37.5C121.052 38 120.235 38.25 118.935 38.25H117.835C115.502 38.25 113.935 37.9833 113.135 37.45C112.335 36.9167 111.668 35.5833 111.135 33.45L104.635 7.2C104.335 6 104.052 5.25 103.785 4.95C103.518 4.65 102.852 4.5 101.785 4.5ZM135.43 1.9V37.1C135.43 37.8667 134.763 38.25 133.43 38.25C132.096 38.25 131.43 37.8667 131.43 37.1V1.9C131.43 1.13333 132.096 0.749997 133.43 0.749997C134.763 0.749997 135.43 1.13333 135.43 1.9ZM141.445 1H162.445C163.112 1 163.445 1.58333 163.445 2.75C163.445 3.91667 163.112 4.5 162.445 4.5H153.945V37.1C153.945 37.8667 153.279 38.25 151.945 38.25C150.612 38.25 149.945 37.8667 149.945 37.1V4.5H141.445C140.779 4.5 140.445 3.91667 140.445 2.75C140.445 1.58333 140.779 1 141.445 1ZM178.945 37.1C178.945 37.8667 178.279 38.25 176.945 38.25C175.612 38.25 174.945 37.8667 174.945 37.1V25.65C173.245 25.3833 171.979 24.7167 171.145 23.65C170.312 22.5833 169.629 21 169.095 18.9L165.195 3.5C164.895 2.43333 164.745 1.81666 164.745 1.65C164.745 1.05 165.362 0.749997 166.595 0.749997C167.862 0.749997 168.579 1.13333 168.745 1.9L172.995 18.35C173.362 19.75 173.795 20.75 174.295 21.35C174.829 21.95 175.712 22.25 176.945 22.25C178.179 22.25 179.045 21.95 179.545 21.35C180.079 20.75 180.529 19.75 180.895 18.35L185.145 1.9C185.312 1.13333 186.012 0.749997 187.245 0.749997C188.512 0.749997 189.145 1.05 189.145 1.65C189.145 1.81666 188.995 2.43333 188.695 3.5L184.795 18.9C184.262 21 183.579 22.5833 182.745 23.65C181.912 24.7167 180.645 25.3833 178.945 25.65V37.1Z" fill="#0066FF"/>
<path d="M4.5 34.5H4.2V34.8H4.5V34.5ZM18.35 33.65L18.1858 33.3989L18.1813 33.4019L18.35 33.65ZM18.35 5.35L18.1813 5.59812L18.1858 5.60109L18.35 5.35ZM4.5 4.5V4.2H4.2V4.5H4.5ZM1 1.8L0.752763 1.63002L0.750385 1.63359L1 1.8ZM21.25 2.8L21.0676 3.03817L21.07 3.04L21.25 2.8ZM21.25 36.2L21.07 35.96L21.0676 35.9618L21.25 36.2ZM1 37.25L0.745601 37.409L0.751498 37.4184L0.758079 37.4274L1 37.25ZM4.5 34.8H13.9V34.2H4.5V34.8ZM13.9 34.8C16.0394 34.8 17.6044 34.5198 18.5187 33.8981L18.1813 33.4019C17.4289 33.9136 16.0272 34.2 13.9 34.2V34.8ZM18.5142 33.9011C19.4979 33.2579 19.95 32.1221 19.95 30.6H19.35C19.35 32.0113 18.9355 32.9088 18.1858 33.3989L18.5142 33.9011ZM19.95 30.6V8.4H19.35V30.6H19.95ZM19.95 8.4C19.95 6.87792 19.4979 5.7421 18.5142 5.09891L18.1858 5.60109C18.9355 6.09123 19.35 6.98875 19.35 8.4H19.95ZM18.5187 5.10192C17.6044 4.48023 16.0394 4.2 13.9 4.2V4.8C16.0272 4.8 17.4289 5.08643 18.1813 5.59808L18.5187 5.10192ZM13.9 4.2H4.5V4.8H13.9V4.2ZM4.2 4.5V34.5H4.8V4.5H4.2ZM0.8 34.25V4.75H0.2V34.25H0.8ZM0.8 4.75C0.8 4.02642 0.841228 3.432 0.920782 2.96263C1.00113 2.4886 1.11683 2.16558 1.24962 1.96641L0.750385 1.63359C0.549834 1.93442 0.415542 2.35306 0.329219 2.86237C0.242106 3.37633 0.2 4.00691 0.2 4.75H0.8ZM1.24721 1.96996C1.38156 1.77454 1.61598 1.60587 1.99143 1.48573C2.36794 1.36525 2.86748 1.3 3.5 1.3V0.7C2.83252 0.7 2.2654 0.768086 1.80857 0.914272C1.35068 1.06079 0.985105 1.29212 0.752788 1.63004L1.24721 1.96996ZM3.5 1.3H13.9V0.7H3.5V1.3ZM13.9 1.3C17.2086 1.3 19.5786 1.89765 21.0676 3.03816L21.4324 2.56183C19.7881 1.30235 17.2581 0.7 13.9 0.7V1.3ZM21.07 3.04C22.5655 4.16166 23.35 6.08457 23.35 8.9H23.95C23.95 5.98209 23.1345 3.83834 21.43 2.56L21.07 3.04ZM23.35 8.9V30.1H23.95V8.9H23.35ZM23.35 30.1C23.35 32.9154 22.5655 34.8383 21.07 35.96L21.43 36.44C23.1345 35.1617 23.95 33.0179 23.95 30.1H23.35ZM21.0676 35.9618C19.5786 37.1023 17.2086 37.7 13.9 37.7V38.3C17.2581 38.3 19.7881 37.6977 21.4324 36.4382L21.0676 35.9618ZM13.9 37.7H3.5V38.3H13.9V37.7ZM3.5 37.7C2.86628 37.7 2.36476 37.6387 1.9862 37.5252C1.60744 37.4115 1.37385 37.2525 1.24192 37.0726L0.758079 37.4274C0.992813 37.7475 1.35923 37.9635 1.8138 38.0998C2.26857 38.2363 2.83372 38.3 3.5 38.3V37.7ZM1.2544 37.091C1.11756 36.872 1.00126 36.5327 0.920919 36.0507C0.841208 35.5724 0.8 34.9734 0.8 34.25H0.2C0.2 34.9932 0.242126 35.6276 0.329082 36.1493C0.415411 36.6673 0.549112 37.0946 0.745601 37.409L1.2544 37.091ZM51.2809 36.9L51.4383 37.1554L51.4414 37.1534L51.2809 36.9ZM35.1809 36.9L35.0222 37.1547L35.0253 37.1565L35.1809 36.9ZM36.5309 18.9L36.6005 19.1918L37.6699 18.9366L36.6191 18.6133L36.5309 18.9ZM35.6809 2.15L35.8365 2.40652L35.8395 2.40463L35.6809 2.15ZM50.9309 2.15L50.7603 2.39682L50.7603 2.39682L50.9309 2.15ZM35.8309 25.1V31.35H36.4309V25.1H35.8309ZM35.8309 31.35C35.8309 32.0467 35.9888 32.6705 36.3145 33.2111C36.64 33.7512 37.1229 34.1916 37.7481 34.5375C38.9895 35.2242 40.813 35.55 43.1809 35.55V34.95C40.8487 34.95 39.1472 34.6258 38.0386 34.0125C37.4888 33.7084 37.0905 33.3363 36.8284 32.9014C36.5667 32.467 36.4309 31.9533 36.4309 31.35H35.8309ZM43.1809 35.55C45.5652 35.55 47.4008 35.2243 48.6503 34.5379C49.2796 34.1923 49.7658 33.752 50.0936 33.2119C50.4217 32.6712 50.5809 32.047 50.5809 31.35H49.9809C49.9809 31.953 49.8442 32.4663 49.5806 32.9006C49.3167 33.3355 48.9155 33.7077 48.3614 34.0121C47.2442 34.6257 45.5299 34.95 43.1809 34.95V35.55ZM50.5809 31.35V27.75H49.9809V31.35H50.5809ZM50.5809 27.75C50.5809 27.4744 50.6898 27.2859 50.9304 27.1476C51.196 26.9948 51.6331 26.9 52.2809 26.9V26.3C51.5953 26.3 51.0324 26.3968 50.6313 26.6274C50.2053 26.8724 49.9809 27.2589 49.9809 27.75H50.5809ZM52.2809 26.9C52.9286 26.9 53.3657 26.9948 53.6313 27.1476C53.8719 27.2859 53.9809 27.4744 53.9809 27.75H54.5809C54.5809 27.2589 54.3565 26.8724 53.9304 26.6274C53.5294 26.3968 52.9664 26.3 52.2809 26.3V26.9ZM53.9809 27.75V30.85H54.5809V27.75H53.9809ZM53.9809 30.85C53.9809 33.5342 53.0176 35.4449 51.1203 36.6466L51.4414 37.1534C53.5441 35.8217 54.5809 33.6992 54.5809 30.85H53.9809ZM51.1234 36.6446C49.187 37.8388 46.5647 38.45 43.2309 38.45V39.05C46.6303 39.05 49.3747 38.4279 51.4383 37.1554L51.1234 36.6446ZM43.2309 38.45C39.9314 38.45 37.3077 37.8392 35.3364 36.6435L35.0253 37.1565C37.1207 38.4275 39.8637 39.05 43.2309 39.05V38.45ZM35.3395 36.6454C33.409 35.4428 32.4309 33.532 32.4309 30.85H31.8309C31.8309 33.7014 32.886 35.8239 35.0222 37.1546L35.3395 36.6454ZM32.4309 30.85V25.1H31.8309V30.85H32.4309ZM32.4309 25.1C32.4309 23.4239 32.789 22.116 33.4755 21.1486C34.159 20.1855 35.1904 19.5283 36.6005 19.1918L36.4612 18.6082C34.938 18.9717 33.7693 19.6979 32.9862 20.8014C32.2061 21.9006 31.8309 23.3428 31.8309 25.1H32.4309ZM36.6191 18.6133C35.3778 18.2313 34.4654 17.5625 33.8586 16.6134C33.2486 15.6592 32.9309 14.3957 32.9309 12.8H32.3309C32.3309 14.4709 32.6631 15.8574 33.3531 16.9366C34.0463 18.0208 35.0839 18.7687 36.4426 19.1867L36.6191 18.6133ZM32.9309 12.8V8.15H32.3309V12.8H32.9309ZM32.9309 8.15C32.9309 5.46796 33.9088 3.57572 35.8364 2.4065L35.5253 1.8935C33.3862 3.19095 32.3309 5.2987 32.3309 8.15H32.9309ZM35.8395 2.40463C37.8127 1.17544 40.3367 0.549997 43.4309 0.549997V-0.0500028C40.2584 -0.0500028 37.6157 0.591219 35.5222 1.89537L35.8395 2.40463ZM43.4309 0.549997C46.5613 0.549997 48.9942 1.17656 50.7603 2.39682L51.1014 1.90318C49.2009 0.590102 46.6338 -0.0500028 43.4309 -0.0500028V0.549997ZM50.7603 2.39682C52.4938 3.59448 53.3809 5.4899 53.3809 8.15H53.9809C53.9809 5.34343 53.0346 3.23885 51.1014 1.90318L50.7603 2.39682ZM53.3809 8.15V8.9H53.9809V8.15H53.3809ZM53.3809 8.9C53.3809 9.17555 53.2719 9.36408 53.0313 9.50243C52.7657 9.65516 52.3286 9.75 51.6809 9.75V10.35C52.3664 10.35 52.9294 10.2532 53.3304 10.0226C53.7565 9.77759 53.9809 9.39111 53.9809 8.9H53.3809ZM51.6809 9.75C51.0331 9.75 50.596 9.65516 50.3304 9.50243C50.0898 9.36408 49.9809 9.17555 49.9809 8.9H49.3809C49.3809 9.39111 49.6053 9.77759 50.0313 10.0226C50.4324 10.2532 50.9953 10.35 51.6809 10.35V9.75ZM49.9809 8.9V7.65H49.3809V8.9H49.9809ZM49.9809 7.65C49.9809 6.24727 49.3819 5.17285 48.1968 4.46723C47.0363 3.77623 45.3342 3.45 43.1309 3.45V4.05C45.2942 4.05 46.8671 4.37377 47.8899 4.98276C48.8881 5.57714 49.3809 6.45272 49.3809 7.65H49.9809ZM43.1309 3.45C40.944 3.45 39.254 3.77628 38.1015 4.46775C36.9247 5.17387 36.3309 6.24836 36.3309 7.65H36.9309C36.9309 6.45163 37.4204 5.57613 38.4102 4.98224C39.4244 4.37371 40.9844 4.05 43.1309 4.05V3.45ZM36.3309 7.65V12.8H36.9309V7.65H36.3309ZM36.3309 12.8C36.3309 14.331 36.8036 15.5277 37.7914 16.3326C38.7674 17.1278 40.1978 17.5 42.0309 17.5V16.9C40.2639 16.9 38.9943 16.5388 38.1704 15.8674C37.3581 15.2056 36.9309 14.2023 36.9309 12.8H36.3309ZM42.0309 17.5H45.7809V16.9H42.0309V17.5ZM45.7809 17.5C46.0055 17.5 46.1566 17.5872 46.2704 17.7863C46.3985 18.0105 46.4809 18.3854 46.4809 18.95H47.0809C47.0809 18.3479 46.9966 17.8478 46.7913 17.4887C46.5718 17.1044 46.2229 16.9 45.7809 16.9V17.5ZM46.4809 18.95C46.4809 19.5146 46.3985 19.8895 46.2704 20.1137C46.1566 20.3128 46.0055 20.4 45.7809 20.4V21C46.2229 21 46.5718 20.7956 46.7913 20.4113C46.9966 20.0522 47.0809 19.5521 47.0809 18.95H46.4809ZM45.7809 20.4H41.5309V21H45.7809V20.4ZM41.5309 20.4C39.6978 20.4 38.2674 20.7722 37.2914 21.5674C36.3036 22.3723 35.8309 23.569 35.8309 25.1H36.4309C36.4309 23.6977 36.8581 22.6944 37.6704 22.0326C38.4943 21.3612 39.7639 21 41.5309 21V20.4ZM64.7578 20.7V20.4H64.4578V20.7H64.7578ZM62.5578 3.1L62.7833 3.29795L62.7856 3.29524L62.5578 3.1ZM65.6078 5.7L65.3677 5.51993L65.363 5.52659L65.6078 5.7ZM64.7578 17.2H64.4578V17.5H64.7578V17.2ZM76.2578 20.4H64.7578V21H76.2578V20.4ZM64.4578 20.7V37.1H65.0578V20.7H64.4578ZM64.4578 37.1C64.4578 37.3756 64.3489 37.5641 64.1083 37.7024C63.8427 37.8552 63.4056 37.95 62.7578 37.95V38.55C63.4434 38.55 64.0063 38.4532 64.4074 38.2226C64.8334 37.9776 65.0578 37.5911 65.0578 37.1H64.4578ZM62.7578 37.95C62.1101 37.95 61.673 37.8552 61.4074 37.7024C61.1667 37.5641 61.0578 37.3756 61.0578 37.1H60.4578C60.4578 37.5911 60.6822 37.9776 61.1083 38.2226C61.5093 38.4532 62.0722 38.55 62.7578 38.55V37.95ZM61.0578 37.1V9.8H60.4578V37.1H61.0578ZM61.0578 9.8C61.0578 6.72568 61.6553 4.58258 62.7832 3.29794L62.3324 2.90206C61.0604 4.35076 60.4578 6.67432 60.4578 9.8H61.0578ZM62.7856 3.29524C63.9032 1.99135 65.8302 1.3 68.6578 1.3V0.7C65.7521 0.7 63.6124 1.40865 62.33 2.90476L62.7856 3.29524ZM68.6578 1.3H78.2578V0.7H68.6578V1.3ZM78.2578 1.3C78.4825 1.3 78.6336 1.38724 78.7473 1.58634C78.8754 1.8105 78.9578 2.1854 78.9578 2.75H79.5578C79.5578 2.14793 79.4735 1.64783 79.2683 1.28866C79.0487 0.904423 78.6998 0.7 78.2578 0.7V1.3ZM78.9578 2.75C78.9578 3.31459 78.8754 3.68949 78.7473 3.91366C78.6336 4.11276 78.4825 4.2 78.2578 4.2V4.8C78.6998 4.8 79.0487 4.59557 79.2683 4.21134C79.4735 3.85217 79.5578 3.35207 79.5578 2.75H78.9578ZM78.2578 4.2H68.6578V4.8H78.2578V4.2ZM68.6578 4.2C67.1732 4.2 66.0462 4.61555 65.3678 5.52L65.8478 5.88C66.3695 5.18445 67.2757 4.8 68.6578 4.8V4.2ZM65.363 5.52659C64.7394 6.40697 64.4578 7.8551 64.4578 9.8H65.0578C65.0578 7.87823 65.3429 6.59303 65.8526 5.8734L65.363 5.52659ZM64.4578 9.8V17.2H65.0578V9.8H64.4578ZM64.7578 17.5H76.2578V16.9H64.7578V17.5ZM76.2578 17.5C76.4825 17.5 76.6336 17.5872 76.7473 17.7863C76.8754 18.0105 76.9578 18.3854 76.9578 18.95H77.5578C77.5578 18.3479 77.4735 17.8478 77.2683 17.4887C77.0487 17.1044 76.6998 16.9 76.2578 16.9V17.5ZM76.9578 18.95C76.9578 19.5146 76.8754 19.8895 76.7473 20.1137C76.6336 20.3128 76.4825 20.4 76.2578 20.4V21C76.6998 21 77.0487 20.7956 77.2683 20.4113C77.4735 20.0522 77.5578 19.5521 77.5578 18.95H76.9578ZM87.4695 1.9V37.1H88.0695V1.9H87.4695ZM87.4695 37.1C87.4695 37.3756 87.3606 37.5641 87.12 37.7024C86.8544 37.8552 86.4173 37.95 85.7695 37.95V38.55C86.4551 38.55 87.018 38.4532 87.4191 38.2226C87.8451 37.9776 88.0695 37.5911 88.0695 37.1H87.4695ZM85.7695 37.95C85.1218 37.95 84.6847 37.8552 84.4191 37.7024C84.1785 37.5641 84.0695 37.3756 84.0695 37.1H83.4695C83.4695 37.5911 83.6939 37.9776 84.12 38.2226C84.521 38.4532 85.0839 38.55 85.7695 38.55V37.95ZM84.0695 37.1V1.9H83.4695V37.1H84.0695ZM84.0695 1.9C84.0695 1.62444 84.1785 1.43592 84.4191 1.29757C84.6847 1.14484 85.1218 1.05 85.7695 1.05V0.449997C85.0839 0.449997 84.521 0.546822 84.12 0.777425C83.6939 1.02241 83.4695 1.40889 83.4695 1.9H84.0695ZM85.7695 1.05C86.4173 1.05 86.8544 1.14484 87.12 1.29757C87.3606 1.43592 87.4695 1.62444 87.4695 1.9H88.0695C88.0695 1.40889 87.8451 1.02241 87.4191 0.777425C87.018 0.546822 86.4551 0.449997 85.7695 0.449997V1.05ZM101.285 4.5V4.2H100.985V4.5H101.285ZM97.7852 1.8L97.5379 1.63002L97.5355 1.63359L97.7852 1.8ZM106.085 1.8L106.252 1.55038L106.252 1.55038L106.085 1.8ZM108.085 5.8L108.376 5.72789L108.376 5.72724L108.085 5.8ZM114.585 32.05L114.294 32.1221L114.294 32.1228L114.585 32.05ZM115.435 34.3L115.211 34.4993L115.211 34.4993L115.435 34.3ZM117.935 34.75V35.05H118.235V34.75H117.935ZM121.385 37.5L121.138 37.33L121.136 37.3336L121.385 37.5ZM113.135 37.45L112.969 37.6996L112.969 37.6996L113.135 37.45ZM111.135 33.45L110.844 33.5221L110.844 33.5228L111.135 33.45ZM104.635 7.2L104.926 7.12789L104.926 7.12724L104.635 7.2ZM101.785 4.2H101.285V4.8H101.785V4.2ZM100.985 4.5V37.1H101.585V4.5H100.985ZM100.985 37.1C100.985 37.3756 100.876 37.5641 100.636 37.7024C100.37 37.8552 99.9329 37.95 99.2852 37.95V38.55C99.9707 38.55 100.534 38.4532 100.935 38.2226C101.361 37.9776 101.585 37.5911 101.585 37.1H100.985ZM99.2852 37.95C98.6374 37.95 98.2003 37.8552 97.9347 37.7024C97.6941 37.5641 97.5852 37.3756 97.5852 37.1H96.9852C96.9852 37.5911 97.2096 37.9776 97.6356 38.2226C98.0367 38.4532 98.5996 38.55 99.2852 38.55V37.95ZM97.5852 37.1V4.75H96.9852V37.1H97.5852ZM97.5852 4.75C97.5852 4.02642 97.6264 3.432 97.7059 2.96263C97.7863 2.4886 97.902 2.16558 98.0348 1.96641L97.5355 1.63359C97.335 1.93442 97.2007 2.35306 97.1144 2.86237C97.0273 3.37633 96.9852 4.00691 96.9852 4.75H97.5852ZM98.0324 1.96996C98.1667 1.77454 98.4011 1.60587 98.7766 1.48573C99.1531 1.36525 99.6526 1.3 100.285 1.3V0.7C99.6177 0.7 99.0506 0.768086 98.5937 0.914272C98.1358 1.06079 97.7703 1.29212 97.5379 1.63004L98.0324 1.96996ZM100.285 1.3H101.385V0.7H100.285V1.3ZM101.385 1.3C102.542 1.3 103.499 1.36622 104.26 1.49575C105.025 1.62605 105.569 1.8167 105.919 2.04961L106.252 1.55038C105.801 1.24996 105.162 1.04062 104.36 0.904253C103.555 0.767112 102.562 0.7 101.385 0.7V1.3ZM105.919 2.04961C106.258 2.2756 106.595 2.69073 106.917 3.33416C107.237 3.9744 107.531 4.81831 107.794 5.87276L108.376 5.72724C108.106 4.64835 107.8 3.75893 107.453 3.06583C107.109 2.37594 106.713 1.85773 106.252 1.55038L105.919 2.04961ZM107.794 5.87211L114.294 32.1221L114.876 31.9779L108.376 5.72789L107.794 5.87211ZM114.294 32.1228C114.446 32.7287 114.595 33.2285 114.742 33.6185C114.886 34.0006 115.039 34.3064 115.211 34.4993L115.659 34.1007C115.564 33.9936 115.442 33.7744 115.303 33.4065C115.167 33.0465 115.025 32.5713 114.876 31.9772L114.294 32.1228ZM115.211 34.4993C115.406 34.719 115.713 34.8501 116.069 34.9302C116.433 35.012 116.891 35.05 117.435 35.05V34.45C116.913 34.45 116.504 34.413 116.201 34.3448C115.89 34.2749 115.731 34.181 115.659 34.1007L115.211 34.4993ZM117.435 35.05H117.935V34.45H117.435V35.05ZM118.235 34.75V2.15H117.635V34.75H118.235ZM118.235 2.15C118.235 1.87444 118.344 1.68592 118.585 1.54757C118.85 1.39484 119.287 1.3 119.935 1.3V0.7C119.25 0.7 118.687 0.796825 118.286 1.02743C117.86 1.27241 117.635 1.65889 117.635 2.15H118.235ZM119.935 1.3C120.583 1.3 121.02 1.39484 121.286 1.54757C121.526 1.68592 121.635 1.87444 121.635 2.15H122.235C122.235 1.65889 122.011 1.27241 121.585 1.02743C121.184 0.796825 120.621 0.7 119.935 0.7V1.3ZM121.635 2.15V34.5H122.235V2.15H121.635ZM121.635 34.5C121.635 35.2224 121.59 35.8197 121.503 36.2959C121.415 36.7755 121.288 37.1124 121.138 37.33L121.632 37.67C121.849 37.3543 121.997 36.9245 122.093 36.4041C122.189 35.8803 122.235 35.2443 122.235 34.5H121.635ZM121.136 37.3336C121.021 37.506 120.804 37.6625 120.435 37.7756C120.066 37.8886 119.569 37.95 118.935 37.95V38.55C119.601 38.55 120.163 38.4864 120.61 38.3494C121.058 38.2125 121.416 37.994 121.635 37.6664L121.136 37.3336ZM118.935 37.95H117.835V38.55H118.935V37.95ZM117.835 37.95C116.678 37.95 115.721 37.8838 114.96 37.7543C114.195 37.624 113.651 37.4333 113.302 37.2004L112.969 37.6996C113.419 38 114.059 38.2094 114.86 38.3457C115.666 38.4829 116.659 38.55 117.835 38.55V37.95ZM113.302 37.2004C112.963 36.9744 112.625 36.5593 112.303 35.9158C111.983 35.2756 111.69 34.4317 111.426 33.3772L110.844 33.5228C111.114 34.6016 111.42 35.4911 111.767 36.1842C112.112 36.8741 112.508 37.3923 112.969 37.6996L113.302 37.2004ZM111.426 33.3779L104.926 7.12789L104.344 7.27211L110.844 33.5221L111.426 33.3779ZM104.926 7.12724C104.775 6.5213 104.626 6.02151 104.478 5.63148C104.334 5.24943 104.181 4.94364 104.009 4.75069L103.561 5.14931C103.656 5.25636 103.778 5.47557 103.917 5.84352C104.053 6.20349 104.196 6.67869 104.344 7.27276L104.926 7.12724ZM104.009 4.75069C103.814 4.53097 103.507 4.39991 103.151 4.31982C102.788 4.23804 102.33 4.2 101.785 4.2V4.8C102.307 4.8 102.716 4.83696 103.019 4.90518C103.33 4.97509 103.49 5.06903 103.561 5.14931L104.009 4.75069ZM135.13 1.9V37.1H135.73V1.9H135.13ZM135.13 37.1C135.13 37.3756 135.021 37.5641 134.78 37.7024C134.515 37.8552 134.077 37.95 133.43 37.95V38.55C134.115 38.55 134.678 38.4532 135.079 38.2226C135.505 37.9776 135.73 37.5911 135.73 37.1H135.13ZM133.43 37.95C132.782 37.95 132.345 37.8552 132.079 37.7024C131.839 37.5641 131.73 37.3756 131.73 37.1H131.13C131.13 37.5911 131.354 37.9776 131.78 38.2226C132.181 38.4532 132.744 38.55 133.43 38.55V37.95ZM131.73 37.1V1.9H131.13V37.1H131.73ZM131.73 1.9C131.73 1.62444 131.839 1.43592 132.079 1.29757C132.345 1.14484 132.782 1.05 133.43 1.05V0.449997C132.744 0.449997 132.181 0.546822 131.78 0.777425C131.354 1.02241 131.13 1.40889 131.13 1.9H131.73ZM133.43 1.05C134.077 1.05 134.515 1.14484 134.78 1.29757C135.021 1.43592 135.13 1.62444 135.13 1.9H135.73C135.73 1.40889 135.505 1.02241 135.079 0.777425C134.678 0.546822 134.115 0.449997 133.43 0.449997V1.05ZM153.945 4.5V4.2H153.645V4.5H153.945ZM149.945 4.5H150.245V4.2H149.945V4.5ZM141.445 1.3H162.445V0.7H141.445V1.3ZM162.445 1.3C162.67 1.3 162.821 1.38724 162.935 1.58634C163.063 1.8105 163.145 2.1854 163.145 2.75H163.745C163.745 2.14793 163.661 1.64783 163.456 1.28866C163.236 0.904423 162.887 0.7 162.445 0.7V1.3ZM163.145 2.75C163.145 3.31459 163.063 3.68949 162.935 3.91366C162.821 4.11276 162.67 4.2 162.445 4.2V4.8C162.887 4.8 163.236 4.59557 163.456 4.21134C163.661 3.85217 163.745 3.35207 163.745 2.75H163.145ZM162.445 4.2H153.945V4.8H162.445V4.2ZM153.645 4.5V37.1H154.245V4.5H153.645ZM153.645 37.1C153.645 37.3756 153.536 37.5641 153.296 37.7024C153.03 37.8552 152.593 37.95 151.945 37.95V38.55C152.631 38.55 153.194 38.4532 153.595 38.2226C154.021 37.9776 154.245 37.5911 154.245 37.1H153.645ZM151.945 37.95C151.298 37.95 150.86 37.8552 150.595 37.7024C150.354 37.5641 150.245 37.3756 150.245 37.1H149.645C149.645 37.5911 149.87 37.9776 150.296 38.2226C150.697 38.4532 151.26 38.55 151.945 38.55V37.95ZM150.245 37.1V4.5H149.645V37.1H150.245ZM149.945 4.2H141.445V4.8H149.945V4.2ZM141.445 4.2C141.221 4.2 141.07 4.11276 140.956 3.91366C140.828 3.68949 140.745 3.31459 140.745 2.75H140.145C140.145 3.35207 140.23 3.85217 140.435 4.21134C140.654 4.59557 141.003 4.8 141.445 4.8V4.2ZM140.745 2.75C140.745 2.1854 140.828 1.8105 140.956 1.58634C141.07 1.38724 141.221 1.3 141.445 1.3V0.7C141.003 0.7 140.654 0.904423 140.435 1.28866C140.23 1.64783 140.145 2.14793 140.145 2.75H140.745ZM174.945 25.65H175.245V25.3934L174.992 25.3536L174.945 25.65ZM171.145 23.65L170.909 23.8347L170.909 23.8347L171.145 23.65ZM169.095 18.9L168.804 18.9736L168.805 18.9738L169.095 18.9ZM165.195 3.5L165.486 3.42632L165.484 3.41877L165.195 3.5ZM168.745 1.9L168.452 1.96377L168.455 1.97504L168.745 1.9ZM172.995 18.35L172.705 18.425L172.705 18.426L172.995 18.35ZM174.295 21.35L174.065 21.5422L174.071 21.5493L174.295 21.35ZM179.545 21.35L179.321 21.1506L179.315 21.1579L179.545 21.35ZM180.895 18.35L181.186 18.426L181.186 18.425L180.895 18.35ZM185.145 1.9L185.436 1.9751L185.438 1.96373L185.145 1.9ZM188.695 3.5L188.406 3.41875L188.404 3.42635L188.695 3.5ZM184.795 18.9L185.086 18.9738L185.086 18.9736L184.795 18.9ZM182.745 23.65L182.982 23.8347L182.982 23.8347L182.745 23.65ZM178.945 25.65L178.899 25.3536L178.645 25.3934V25.65H178.945ZM178.645 37.1C178.645 37.3756 178.536 37.5641 178.296 37.7024C178.03 37.8552 177.593 37.95 176.945 37.95V38.55C177.631 38.55 178.194 38.4532 178.595 38.2226C179.021 37.9776 179.245 37.5911 179.245 37.1H178.645ZM176.945 37.95C176.298 37.95 175.86 37.8552 175.595 37.7024C175.354 37.5641 175.245 37.3756 175.245 37.1H174.645C174.645 37.5911 174.87 37.9776 175.296 38.2226C175.697 38.4532 176.26 38.55 176.945 38.55V37.95ZM175.245 37.1V25.65H174.645V37.1H175.245ZM174.992 25.3536C173.346 25.0954 172.156 24.457 171.382 23.4653L170.909 23.8347C171.801 24.9763 173.145 25.6712 174.899 25.9464L174.992 25.3536ZM171.382 23.4653C170.585 22.4452 169.915 20.9073 169.386 18.8262L168.805 18.9738C169.343 21.0927 170.039 22.7214 170.909 23.8347L171.382 23.4653ZM169.386 18.8263L165.486 3.42635L164.904 3.57365L168.804 18.9736L169.386 18.8263ZM165.484 3.41877C165.334 2.88675 165.223 2.46985 165.149 2.16659C165.112 2.01478 165.086 1.89405 165.068 1.80295C165.059 1.75741 165.053 1.72129 165.05 1.69365C165.048 1.67993 165.047 1.66929 165.046 1.66138C165.045 1.65318 165.045 1.64974 165.045 1.65H164.445C164.445 1.72303 164.46 1.81779 164.479 1.91579C164.499 2.02053 164.528 2.15188 164.566 2.3084C164.643 2.62181 164.756 3.04658 164.907 3.58122L165.484 3.41877ZM165.045 1.65C165.045 1.55421 165.069 1.48342 165.108 1.42582C165.149 1.36593 165.22 1.30277 165.339 1.24477C165.586 1.12476 165.993 1.05 166.595 1.05V0.449997C165.964 0.449997 165.447 0.525236 165.077 0.705226C164.887 0.79722 164.727 0.921566 164.613 1.08668C164.499 1.25408 164.445 1.44579 164.445 1.65H165.045ZM166.595 1.05C167.204 1.05 167.644 1.14312 167.941 1.30203C168.225 1.45393 168.388 1.6698 168.452 1.96373L169.038 1.83627C168.936 1.36353 168.657 1.00439 168.224 0.772961C167.805 0.548545 167.253 0.449997 166.595 0.449997V1.05ZM168.455 1.97504L172.705 18.425L173.286 18.275L169.036 1.82495L168.455 1.97504ZM172.705 18.426C173.075 19.8383 173.522 20.8904 174.065 21.5421L174.526 21.1579C174.069 20.6096 173.649 19.6617 173.286 18.274L172.705 18.426ZM174.071 21.5493C174.686 22.2411 175.672 22.55 176.945 22.55V21.95C175.752 21.95 174.971 21.6589 174.52 21.1507L174.071 21.5493ZM176.945 22.55C178.216 22.55 179.193 22.242 179.776 21.5421L179.315 21.1579C178.898 21.658 178.141 21.95 176.945 21.95V22.55ZM179.77 21.5493C180.35 20.8959 180.815 19.8406 181.186 18.426L180.605 18.274C180.242 19.6594 179.807 20.6041 179.321 21.1507L179.77 21.5493ZM181.186 18.425L185.436 1.97504L184.855 1.82495L180.605 18.275L181.186 18.425ZM185.438 1.96373C185.503 1.66698 185.664 1.45138 185.939 1.30063C186.228 1.14284 186.654 1.05 187.245 1.05V0.449997C186.603 0.449997 186.063 0.548816 185.651 0.774368C185.227 1.00695 184.954 1.36635 184.852 1.83627L185.438 1.96373ZM187.245 1.05C187.864 1.05 188.286 1.12483 188.542 1.24612C188.666 1.30489 188.739 1.36884 188.781 1.4289C188.822 1.48625 188.845 1.55593 188.845 1.65H189.445C189.445 1.44406 189.39 1.25124 189.272 1.0836C189.156 0.918655 188.991 0.795105 188.799 0.703875C188.421 0.52516 187.893 0.449997 187.245 0.449997V1.05ZM188.845 1.65C188.845 1.64974 188.845 1.65318 188.845 1.66138C188.844 1.66929 188.843 1.67993 188.841 1.69365C188.837 1.72129 188.831 1.75741 188.823 1.80295C188.805 1.89405 188.778 2.01478 188.741 2.16659C188.668 2.46985 188.556 2.88675 188.407 3.41877L188.984 3.58122C189.134 3.04658 189.248 2.62181 189.324 2.3084C189.362 2.15188 189.392 2.02053 189.412 1.91579C189.431 1.81779 189.445 1.72303 189.445 1.65H188.845ZM188.404 3.42635L184.504 18.8263L185.086 18.9736L188.986 3.57365L188.404 3.42635ZM184.505 18.8262C183.976 20.9073 183.306 22.4452 182.509 23.4653L182.982 23.8347C183.851 22.7214 184.548 21.0927 185.086 18.9738L184.505 18.8262ZM182.509 23.4653C181.734 24.457 180.545 25.0954 178.899 25.3536L178.992 25.9464C180.746 25.6712 182.09 24.9763 182.982 23.8347L182.509 23.4653ZM178.645 25.65V37.1H179.245V25.65H178.645Z" fill="#0066FF"/>
</svg>
