<svg width="59" height="59" viewBox="0 0 59 59" fill="none" xmlns="http://www.w3.org/2000/svg">
    <path d="M50.7593 6.57407L32.3333 20.2593L35.7407 12.1852L50.7593 6.57407Z" fill="#E2761B" stroke="#E2761B" stroke-linecap="round" stroke-linejoin="round"/>
    <path d="M8.22222 6.57407L26.5 20.3889L23.2593 12.1852L8.22222 6.57407ZM44.1296 38.2963L39.2222 45.8148L49.7222 48.7037L52.7407 38.463L44.1296 38.2963ZM6.27777 38.463L9.27777 48.7037L19.7778 45.8148L14.8704 38.2963L6.27777 38.463Z" fill="#E4761B" stroke="#E4761B" stroke-linecap="round" stroke-linejoin="round"/>
    <path d="M19.1852 25.5926L16.2592 30.0185L26.6852 30.4815L26.3148 19.2778L19.1852 25.5926ZM39.7963 25.5926L32.5741 19.1481L32.3333 30.4815L42.7407 30.0185L39.7963 25.5926ZM19.7778 45.8148L26.037 42.7593L20.6296 38.537L19.7778 45.8148ZM32.9444 42.7593L39.2222 45.8148L38.3518 38.537L32.9444 42.7593Z" fill="#E4761B" stroke="#E4761B" stroke-linecap="round" stroke-linejoin="round"/>
    <path d="M39.2222 45.8148L32.9444 42.7593L33.4444 46.8519L33.3889 48.5741L39.2222 45.8148ZM19.7778 45.8148L25.6111 48.5741L25.5741 46.8519L26.037 42.7593L19.7778 45.8148Z" fill="#D7C1B3" stroke="#D7C1B3" stroke-linecap="round" stroke-linejoin="round"/>
    <path d="M25.7037 35.8333L20.4815 34.2963L24.1667 32.6111L25.7037 35.8333ZM33.2778 35.8333L34.8148 32.6111L38.5185 34.2963L33.2778 35.8333Z" fill="#233447" stroke="#233447" stroke-linecap="round" stroke-linejoin="round"/>
    <path d="M19.7778 45.8148L20.6667 38.2963L14.8704 38.463L19.7778 45.8148ZM38.3333 38.2963L39.2222 45.8148L44.1296 38.463L38.3333 38.2963ZM42.7407 30.0185L32.3333 30.4815L33.2963 35.8333L34.8333 32.6111L38.537 34.2963L42.7407 30.0185ZM20.4815 34.2963L24.1852 32.6111L25.7037 35.8333L26.6852 30.4815L16.2593 30.0185L20.4815 34.2963Z" fill="#CD6116" stroke="#CD6116" stroke-linecap="round" stroke-linejoin="round"/>
    <path d="M16.2592 30.0185L20.6296 38.537L20.4815 34.2963L16.2592 30.0185ZM38.537 34.2963L38.3518 38.537L42.7407 30.0185L38.537 34.2963ZM26.6852 30.4815L25.7037 35.8333L26.9259 42.1481L27.2037 33.8333L26.6852 30.4815ZM32.3333 30.4815L31.8333 33.8148L32.0555 42.1481L33.2963 35.8333L32.3333 30.4815Z" fill="#E4751F" stroke="#E4751F" stroke-linecap="round" stroke-linejoin="round"/>
    <path d="M33.2963 35.8333L32.0555 42.1481L32.9444 42.7593L38.3518 38.537L38.537 34.2963L33.2963 35.8333ZM20.4815 34.2963L20.6296 38.537L26.037 42.7593L26.9259 42.1481L25.7037 35.8333L20.4815 34.2963Z" fill="#F6851B" stroke="#F6851B" stroke-linecap="round" stroke-linejoin="round"/>
    <path d="M33.3889 48.5741L33.4444 46.8519L32.9815 46.4445H26L25.5741 46.8519L25.6111 48.5741L19.7778 45.8148L21.8148 47.4815L25.9444 50.3519H33.037L37.1852 47.4815L39.2222 45.8148L33.3889 48.5741Z" fill="#C0AD9E" stroke="#C0AD9E" stroke-linecap="round" stroke-linejoin="round"/>
    <path d="M32.9444 42.7593L32.0555 42.1481H26.9259L26.037 42.7593L25.5741 46.8519L26 46.4444H32.9815L33.4444 46.8519L32.9444 42.7593Z" fill="#161616" stroke="#161616" stroke-linecap="round" stroke-linejoin="round"/>
    <path d="M51.537 21.1481L53.1111 13.5926L50.7593 6.57407L32.9444 19.7963L39.7963 25.5926L49.4815 28.4259L51.6296 25.9259L50.7037 25.2593L52.1852 23.9074L51.037 23.0185L52.5185 21.8889L51.537 21.1481ZM5.88889 13.5926L7.46296 21.1481L6.46296 21.8889L7.94444 23.0185L6.81481 23.9074L8.29629 25.2593L7.37037 25.9259L9.5 28.4259L19.1852 25.5926L26.037 19.7963L8.22222 6.57407L5.88889 13.5926Z" fill="#763D16" stroke="#763D16" stroke-linecap="round" stroke-linejoin="round"/>
    <path d="M49.4815 28.4259L39.7963 25.5926L42.7407 30.0185L38.3518 38.537L44.1296 38.463H52.7407L49.4815 28.4259ZM19.1852 25.5926L9.49999 28.4259L6.27777 38.463H14.8704L20.6296 38.537L16.2593 30.0185L19.1852 25.5926ZM32.3333 30.4815L32.9444 19.7963L35.7593 12.1852H23.2593L26.037 19.7963L26.6852 30.4815L26.9074 33.8518L26.9259 42.1481H32.0556L32.0926 33.8518L32.3333 30.4815Z" fill="#F6851B" stroke="#F6851B" stroke-linecap="round" stroke-linejoin="round"/>
</svg>
