<svg xmlns="http://www.w3.org/2000/svg" width="124.716" height="122.903" viewBox="0 0 124.716 122.903">
  <path id="business-professional" d="M36.213,46.724c.609-1.776,1.451-2.648,2.517-2.961-.376-7.752.822-19.939-6.648-22.339C46.89,2.013,63.941-8.548,76.78,8.72c14.727.818,21.04,24.536,10.911,36.238a4.319,4.319,0,0,1,2.284.506,3.781,3.781,0,0,1,1.756,2.272,7.268,7.268,0,0,1-.091,3.94l-1.918,5.738A4.3,4.3,0,0,1,88.5,59.568a3.417,3.417,0,0,1-2.619.678,4.585,4.585,0,0,1-.538-.065c-.122,6.46-3.045,9.431-7,13.318l-1.492,1.507c-3.948,4.037-8.262,6-12.646,6s-8.921-2.024-13.072-5.943l-1.462-1.346c-3.826-3.52-7.044-6.438-7.622-13.544h-.335a4.473,4.473,0,0,1-2.253-.635,6.4,6.4,0,0,1-2.466-3.23,15.361,15.361,0,0,1-1.015-4.78V49.093a10.681,10.681,0,0,1,.213-2.433Zm9.256,34.128,9.337,29.154,4.709-17.312-2.3-2.67q-1.553-2.412-.69-4.22c1.248-2.616,3.826-2.153,6.242-2.153s5.653-.506,6.445,2.842A4.674,4.674,0,0,1,68.4,90l-2.3,2.691,4.7,17.312,8.454-29.154c6.09,5.824,27.586,7,34.3,10.971a18.1,18.1,0,0,1,5.592,5.071c3.847,5.383,4.171,13.016,5.572,19.616-.345,3.854-2.405,6.072-6.455,6.395H6.455C2.4,122.581.365,120.353,0,116.509c1.4-6.7,1.736-14.233,5.572-19.616a17.73,17.73,0,0,1,5.592-5.071C17.893,87.85,39.369,86.677,45.469,80.852ZM74.8,23.254c-7.49,8.064-16.868,5.577-23.476,8.753-.386.248-.782.528-1.187.818a11.337,11.337,0,0,0-4.242,5.62,14.95,14.95,0,0,0-.173,7.687,1.7,1.7,0,0,1,0,.926,1.45,1.45,0,0,1-1.878.937c-1.319-.506-4.121-1.938-4.791-.3,0,.377-.061.947-.081,1.55V51.4a11.926,11.926,0,0,0,.761,3.714,3.581,3.581,0,0,0,1.218,1.7,1.725,1.725,0,0,0,.832.226,3.9,3.9,0,0,0,1.2-.215,1.57,1.57,0,0,1,.447-.086,1.514,1.514,0,0,1,1.492,1.518c.162,7.062,3.116,9.754,6.709,13.038l1.492,1.378c3.613,3.4,7.409,5.157,11.164,5.157s7.237-1.669,10.606-5.125l1.522-1.529c3.765-3.757,6.536-6.524,6.008-13.253a1.566,1.566,0,0,1,.244-.99,1.462,1.462,0,0,1,.928-.668,1.393,1.393,0,0,1,1.1.227,2.945,2.945,0,0,0,1.421.581,2.393,2.393,0,0,0,.629,0,3.274,3.274,0,0,0,.284-.721l1.867-5.62a4.215,4.215,0,0,0,.122-2.078.8.8,0,0,0-.345-.474,1.712,1.712,0,0,0-.924-.129,5.036,5.036,0,0,0-2.629,1.173,1.4,1.4,0,0,1-1.648.085,1.6,1.6,0,0,1-.686-1.592c1.38-8.613.751-14.157-1.015-17.958a14.861,14.861,0,0,0-6.516-6.869l-.416.334Z" transform="translate(0 -0.002)" fill="#fff"/>
</svg>
